<svg width="64" height="64" viewBox="0 0 64 64" fill="none" xmlns="http://www.w3.org/2000/svg">
<g clip-path="url(#clip0_25_158)">
<path d="M63 46.7501C59.343 53.0463 53.7203 57.9681 46.9954 60.7595C40.2705 63.551 32.8152 64.0579 25.7744 62.2023C18.7336 60.3467 12.4965 56.2312 8.02095 50.4879C3.54539 44.7446 1.07882 37.6909 1 30.4101C1.01497 24.178 2.79916 18.0783 6.14501 12.8205C9.49086 7.56278 14.2608 3.3631 19.9 0.710083C17.0259 5.67572 15.5149 11.3126 15.52 17.0501C15.5357 21.3896 16.4072 25.6835 18.0845 29.6858C19.7618 33.6881 22.2121 37.3203 25.295 40.3744C28.3779 43.4285 32.0329 45.8446 36.0508 47.4843C40.0687 49.124 44.3705 49.9551 48.71 49.9301C53.6493 49.9343 58.5286 48.8484 63 46.7501Z" fill="#F8B234"/>
<path d="M63 46.7501C59.343 53.0463 53.7203 57.9681 46.9954 60.7595C40.2705 63.551 32.8153 64.0579 25.7744 62.2023C18.7336 60.3467 12.4965 56.2312 8.02097 50.4879C3.54541 44.7445 1.07884 37.6909 1.00002 30.4101C0.992722 23.5012 3.18528 16.7694 7.26002 11.1901C5.10945 15.6217 3.99468 20.4842 4.00002 25.4101C4.07822 32.1166 6.18217 38.6428 10.0358 44.1322C13.8893 49.6216 19.3125 53.8177 25.5935 56.1698C31.8745 58.522 38.7199 58.9202 45.2313 57.3123C51.7427 55.7045 57.6159 52.1656 62.08 47.1601L63 46.7501Z" fill="#F7A623"/>
<path d="M34.19 64.29C25.1669 64.3193 16.5005 60.7691 10.0912 54.4179C3.68191 48.0667 0.0529051 39.433 0 30.41C0.0345449 23.9937 1.8803 17.7175 5.3248 12.3039C8.7693 6.89041 13.6725 2.5596 19.47 -0.189954C19.6621 -0.278742 19.8774 -0.3043 20.0849 -0.262952C20.2925 -0.221603 20.4816 -0.115479 20.625 0.0401489C20.7684 0.195777 20.8587 0.392886 20.883 0.603111C20.9072 0.813337 20.8642 1.02584 20.76 1.21005C17.9836 6.02752 16.5215 11.4898 16.52 17.05C16.5703 25.5434 19.9877 33.67 26.0225 39.6466C32.0573 45.6233 40.2166 48.962 48.71 48.93C53.5019 48.9403 58.2362 47.8848 62.57 45.84C62.7636 45.7448 62.9827 45.7147 63.1948 45.7543C63.4068 45.7938 63.6004 45.9009 63.7466 46.0595C63.8929 46.2181 63.9839 46.4197 64.0061 46.6343C64.0283 46.8488 63.9806 47.0648 63.87 47.25C60.8424 52.4355 56.5091 56.7372 51.3017 59.7269C46.0943 62.7166 40.1946 64.2899 34.19 64.29ZM17.54 3.11005C12.825 5.9448 8.91889 9.94518 6.1973 14.7264C3.47571 19.5075 2.03026 24.9086 2 30.41C2.05026 38.9034 5.46771 47.03 11.5025 53.0066C17.5373 58.9833 25.6966 62.322 34.19 62.29C39.3076 62.289 44.3521 61.0749 48.9098 58.7474C53.4675 56.4198 57.4087 53.0452 60.41 48.9C56.656 50.242 52.6966 50.9188 48.71 50.9C39.6921 50.9294 31.0302 47.3833 24.6217 41.0385C18.2133 34.6938 14.5808 26.0678 14.52 17.05C14.5221 12.2413 15.5517 7.4885 17.54 3.11005Z" fill="#282F39"/>
</g>
<defs>
<clipPath id="clip0_25_158">
<rect width="64" height="64" fill="white"/>
</clipPath>
</defs>
</svg>
