<svg width="64" height="64" viewBox="0 0 64 64" fill="none" xmlns="http://www.w3.org/2000/svg">
<mask id="path-1-inside-1_25_165" fill="white">
<path d="M28.4444 3.55556C28.4444 3.55556 28.4444 -4.76837e-07 32 -4.76837e-07C35.5556 -4.76837e-07 35.5556 3.55556 35.5556 3.55556V7.11111C35.5556 7.11111 35.5556 10.6667 32 10.6667C28.4444 10.6667 28.4444 7.11111 28.4444 7.11111V3.55556ZM60.4444 28.4444C60.4444 28.4444 64 28.4444 64 32C64 35.5556 60.4444 35.5556 60.4444 35.5556H56.8889C56.8889 35.5556 53.3333 35.5556 53.3333 32C53.3333 28.4444 56.8889 28.4444 56.8889 28.4444H60.4444ZM7.11111 28.4444C7.11111 28.4444 10.6667 28.4444 10.6667 32C10.6667 35.5556 7.11111 35.5556 7.11111 35.5556H3.55556C3.55556 35.5556 0 35.5556 0 32C0 28.4444 3.55556 28.4444 3.55556 28.4444H7.11111ZM16.2151 12.9671C16.2151 12.9671 18.7289 15.4809 16.2151 17.9947C13.7013 20.5084 11.1876 17.9947 11.1876 17.9947L8.672 15.4809C8.672 15.4809 6.15822 12.9671 8.672 10.4516C11.1876 7.93778 13.7013 10.4516 13.7013 10.4516L16.2151 12.9671ZM53.5484 50.2987C53.5484 50.2987 56.0622 52.8124 53.5484 55.3262C51.0347 57.84 48.5209 55.3262 48.5209 55.3262L46.0071 52.8124C46.0071 52.8124 43.4933 50.2987 46.0071 47.7849C48.5209 45.2711 51.0347 47.7849 51.0347 47.7849L53.5484 50.2987ZM52.8142 17.9929C52.8142 17.9929 50.3004 20.5067 47.7867 17.9929C45.2729 15.4791 47.7867 12.9653 47.7867 12.9653L50.3004 10.4516C50.3004 10.4516 52.8142 7.93778 55.328 10.4516C57.8418 12.9653 55.328 15.4791 55.328 15.4791L52.8142 17.9929ZM15.4809 55.3262C15.4809 55.3262 12.9671 57.84 10.4533 55.3262C7.93956 52.8124 10.4533 50.2987 10.4533 50.2987L12.9671 47.7849C12.9671 47.7849 15.4809 45.2711 17.9947 47.7849C20.5084 50.2987 17.9947 52.8124 17.9947 52.8124L15.4809 55.3262ZM28.4444 56.8889C28.4444 56.8889 28.4444 53.3333 32 53.3333C35.5556 53.3333 35.5556 56.8889 35.5556 56.8889V60.4444C35.5556 60.4444 35.5556 64 32 64C28.4444 64 28.4444 60.4444 28.4444 60.4444V56.8889ZM49.7778 32C49.7778 22.1813 41.8169 14.2222 32 14.2222C22.1813 14.2222 14.2222 22.1813 14.2222 32C14.2222 41.8169 22.1813 49.7778 32 49.7778C41.8169 49.7778 49.7778 41.8169 49.7778 32Z"/>
</mask>
<path d="M28.4444 3.55556C28.4444 3.55556 28.4444 -4.76837e-07 32 -4.76837e-07C35.5556 -4.76837e-07 35.5556 3.55556 35.5556 3.55556V7.11111C35.5556 7.11111 35.5556 10.6667 32 10.6667C28.4444 10.6667 28.4444 7.11111 28.4444 7.11111V3.55556ZM60.4444 28.4444C60.4444 28.4444 64 28.4444 64 32C64 35.5556 60.4444 35.5556 60.4444 35.5556H56.8889C56.8889 35.5556 53.3333 35.5556 53.3333 32C53.3333 28.4444 56.8889 28.4444 56.8889 28.4444H60.4444ZM7.11111 28.4444C7.11111 28.4444 10.6667 28.4444 10.6667 32C10.6667 35.5556 7.11111 35.5556 7.11111 35.5556H3.55556C3.55556 35.5556 0 35.5556 0 32C0 28.4444 3.55556 28.4444 3.55556 28.4444H7.11111ZM16.2151 12.9671C16.2151 12.9671 18.7289 15.4809 16.2151 17.9947C13.7013 20.5084 11.1876 17.9947 11.1876 17.9947L8.672 15.4809C8.672 15.4809 6.15822 12.9671 8.672 10.4516C11.1876 7.93778 13.7013 10.4516 13.7013 10.4516L16.2151 12.9671ZM53.5484 50.2987C53.5484 50.2987 56.0622 52.8124 53.5484 55.3262C51.0347 57.84 48.5209 55.3262 48.5209 55.3262L46.0071 52.8124C46.0071 52.8124 43.4933 50.2987 46.0071 47.7849C48.5209 45.2711 51.0347 47.7849 51.0347 47.7849L53.5484 50.2987ZM52.8142 17.9929C52.8142 17.9929 50.3004 20.5067 47.7867 17.9929C45.2729 15.4791 47.7867 12.9653 47.7867 12.9653L50.3004 10.4516C50.3004 10.4516 52.8142 7.93778 55.328 10.4516C57.8418 12.9653 55.328 15.4791 55.328 15.4791L52.8142 17.9929ZM15.4809 55.3262C15.4809 55.3262 12.9671 57.84 10.4533 55.3262C7.93956 52.8124 10.4533 50.2987 10.4533 50.2987L12.9671 47.7849C12.9671 47.7849 15.4809 45.2711 17.9947 47.7849C20.5084 50.2987 17.9947 52.8124 17.9947 52.8124L15.4809 55.3262ZM28.4444 56.8889C28.4444 56.8889 28.4444 53.3333 32 53.3333C35.5556 53.3333 35.5556 56.8889 35.5556 56.8889V60.4444C35.5556 60.4444 35.5556 64 32 64C28.4444 64 28.4444 60.4444 28.4444 60.4444V56.8889ZM49.7778 32C49.7778 22.1813 41.8169 14.2222 32 14.2222C22.1813 14.2222 14.2222 22.1813 14.2222 32C14.2222 41.8169 22.1813 49.7778 32 49.7778C41.8169 49.7778 49.7778 41.8169 49.7778 32Z" fill="#FFAC33"/>
<path d="M16.2151 12.9671L15.1545 14.0278L15.1541 14.0274L16.2151 12.9671ZM11.1876 17.9947L12.2478 16.9336L12.2482 16.934L11.1876 17.9947ZM8.672 15.4809L7.61171 16.5419L7.61134 16.5415L8.672 15.4809ZM8.672 10.4516L7.61096 9.39127L7.61171 9.39052L8.672 10.4516ZM13.7013 10.4516L14.762 9.39089L14.7624 9.39127L13.7013 10.4516ZM53.5484 50.2987L52.4878 51.3593L52.4878 51.3593L53.5484 50.2987ZM48.5209 55.3262L47.4602 56.3869L47.4602 56.3869L48.5209 55.3262ZM46.0071 52.8124L47.0678 51.7518L47.0678 51.7518L46.0071 52.8124ZM51.0347 47.7849L52.0953 46.7242L52.0953 46.7242L51.0347 47.7849ZM52.8142 17.9929L51.7536 16.9322L51.7536 16.9322L52.8142 17.9929ZM47.7867 12.9653L46.726 11.9047L46.726 11.9047L47.7867 12.9653ZM50.3004 10.4516L51.3611 11.5122L51.3611 11.5122L50.3004 10.4516ZM55.328 15.4791L56.3887 16.5398L56.3887 16.5398L55.328 15.4791ZM15.4809 55.3262L16.5415 56.3869L16.5415 56.3869L15.4809 55.3262ZM10.4533 50.2987L11.514 51.3593L11.514 51.3593L10.4533 50.2987ZM12.9671 47.7849L11.9065 46.7242L11.9065 46.7242L12.9671 47.7849ZM17.9947 52.8124L16.934 51.7518L16.934 51.7518L17.9947 52.8124ZM28.4444 3.55556C26.9444 3.55556 26.9444 3.55481 26.9444 3.55405C26.9444 3.55377 26.9444 3.553 26.9444 3.55245C26.9444 3.55136 26.9445 3.55021 26.9445 3.549C26.9445 3.54659 26.9445 3.54394 26.9445 3.54107C26.9446 3.53533 26.9446 3.52869 26.9447 3.52117C26.945 3.50612 26.9454 3.48754 26.9461 3.46565C26.9476 3.42192 26.9503 3.36471 26.9552 3.29591C26.965 3.15881 26.9839 2.97274 27.0204 2.7534C27.0923 2.32183 27.239 1.72347 27.5472 1.10696C27.8584 0.484567 28.3488 -0.183452 29.1124 -0.69252C29.8854 -1.20785 30.8486 -1.5 32 -1.5V1.5C31.3736 1.5 31.0035 1.65229 30.7765 1.80363C30.5401 1.96123 30.3638 2.1821 30.2305 2.4486C30.0943 2.72097 30.0188 3.0115 29.9796 3.2466C29.9606 3.36059 29.9517 3.4523 29.9476 3.50965C29.9455 3.53807 29.9448 3.55725 29.9445 3.5656C29.9443 3.56975 29.9443 3.57113 29.9444 3.56955C29.9444 3.56875 29.9444 3.5672 29.9444 3.56488C29.9444 3.56372 29.9444 3.56237 29.9444 3.56081C29.9444 3.56004 29.9444 3.55921 29.9444 3.55833C29.9444 3.5579 29.9444 3.5572 29.9444 3.55698C29.9444 3.55628 29.9444 3.55556 28.4444 3.55556ZM32 -1.5C33.1514 -1.5 34.1146 -1.20785 34.8876 -0.69252C35.6512 -0.183452 36.1416 0.484567 36.4528 1.10696C36.761 1.72347 36.9077 2.32183 36.9796 2.7534C37.0161 2.97274 37.035 3.15881 37.0448 3.29591C37.0497 3.36471 37.0524 3.42192 37.0539 3.46565C37.0546 3.48754 37.055 3.50612 37.0553 3.52117C37.0554 3.52869 37.0554 3.53533 37.0555 3.54107C37.0555 3.54394 37.0555 3.54659 37.0555 3.549C37.0555 3.55021 37.0556 3.55136 37.0556 3.55245C37.0556 3.553 37.0556 3.55377 37.0556 3.55405C37.0556 3.55481 37.0556 3.55556 35.5556 3.55556C34.0556 3.55556 34.0556 3.55628 34.0556 3.55698C34.0556 3.5572 34.0556 3.5579 34.0556 3.55833C34.0556 3.55921 34.0556 3.56004 34.0556 3.56081C34.0556 3.56237 34.0556 3.56372 34.0556 3.56488C34.0556 3.5672 34.0556 3.56875 34.0556 3.56955C34.0557 3.57113 34.0557 3.56975 34.0555 3.5656C34.0552 3.55725 34.0545 3.53807 34.0524 3.50965C34.0483 3.4523 34.0394 3.36059 34.0204 3.2466C33.9812 3.0115 33.9057 2.72097 33.7695 2.4486C33.6362 2.1821 33.4599 1.96123 33.2235 1.80363C32.9965 1.65229 32.6264 1.5 32 1.5V-1.5ZM37.0556 3.55556V7.11111H34.0556V3.55556H37.0556ZM35.5556 7.11111C37.0556 7.11111 37.0556 7.11186 37.0556 7.11262C37.0556 7.11289 37.0556 7.11367 37.0556 7.11421C37.0556 7.11531 37.0555 7.11646 37.0555 7.11766C37.0555 7.12008 37.0555 7.12272 37.0555 7.12559C37.0554 7.13133 37.0554 7.13798 37.0553 7.1455C37.055 7.16054 37.0546 7.17912 37.0539 7.20101C37.0524 7.24475 37.0497 7.30195 37.0448 7.37076C37.035 7.50786 37.0161 7.69392 36.9796 7.91326C36.9077 8.34484 36.761 8.94319 36.4528 9.55971C36.1416 10.1821 35.6512 10.8501 34.8876 11.3592C34.1146 11.8745 33.1514 12.1667 32 12.1667V9.16667C32.6264 9.16667 32.9965 9.01437 33.2235 8.86304C33.4599 8.70544 33.6362 8.48457 33.7695 8.21807C33.9057 7.9457 33.9812 7.65516 34.0204 7.42007C34.0394 7.30607 34.0483 7.21436 34.0524 7.15702C34.0545 7.1286 34.0552 7.10942 34.0555 7.10107C34.0557 7.09692 34.0557 7.09553 34.0556 7.09712C34.0556 7.09792 34.0556 7.09946 34.0556 7.10178C34.0556 7.10294 34.0556 7.1043 34.0556 7.10585C34.0556 7.10663 34.0556 7.10746 34.0556 7.10833C34.0556 7.10877 34.0556 7.10947 34.0556 7.10968C34.0556 7.11039 34.0556 7.11111 35.5556 7.11111ZM32 12.1667C30.8486 12.1667 29.8854 11.8745 29.1124 11.3592C28.3488 10.8501 27.8584 10.1821 27.5472 9.55971C27.239 8.94319 27.0923 8.34484 27.0204 7.91326C26.9839 7.69392 26.965 7.50786 26.9552 7.37076C26.9503 7.30195 26.9476 7.24475 26.9461 7.20101C26.9454 7.17912 26.945 7.16054 26.9447 7.1455C26.9446 7.13798 26.9446 7.13133 26.9445 7.12559C26.9445 7.12272 26.9445 7.12008 26.9445 7.11766C26.9445 7.11646 26.9444 7.11531 26.9444 7.11421C26.9444 7.11367 26.9444 7.11289 26.9444 7.11262C26.9444 7.11186 26.9444 7.11111 28.4444 7.11111C29.9444 7.11111 29.9444 7.11039 29.9444 7.10968C29.9444 7.10947 29.9444 7.10877 29.9444 7.10833C29.9444 7.10746 29.9444 7.10663 29.9444 7.10585C29.9444 7.1043 29.9444 7.10294 29.9444 7.10178C29.9444 7.09946 29.9444 7.09792 29.9444 7.09712C29.9443 7.09553 29.9443 7.09692 29.9445 7.10107C29.9448 7.10942 29.9455 7.1286 29.9476 7.15702C29.9517 7.21436 29.9606 7.30607 29.9796 7.42007C30.0188 7.65516 30.0943 7.9457 30.2305 8.21807C30.3638 8.48457 30.5401 8.70544 30.7765 8.86304C31.0035 9.01437 31.3736 9.16667 32 9.16667V12.1667ZM26.9444 7.11111V3.55556H29.9444V7.11111H26.9444ZM60.4444 28.4444C60.4444 26.9444 60.4452 26.9444 60.446 26.9444C60.4462 26.9444 60.447 26.9444 60.4475 26.9444C60.4486 26.9444 60.4498 26.9445 60.451 26.9445C60.4534 26.9445 60.4561 26.9445 60.4589 26.9445C60.4647 26.9446 60.4713 26.9446 60.4788 26.9447C60.4939 26.945 60.5125 26.9454 60.5343 26.9461C60.5781 26.9476 60.6353 26.9503 60.7041 26.9552C60.8412 26.965 61.0273 26.9839 61.2466 27.0204C61.6782 27.0923 62.2765 27.239 62.893 27.5472C63.5154 27.8584 64.1835 28.3488 64.6925 29.1124C65.2078 29.8854 65.5 30.8486 65.5 32H62.5C62.5 31.3736 62.3477 31.0035 62.1964 30.7765C62.0388 30.5401 61.8179 30.3638 61.5514 30.2305C61.279 30.0943 60.9885 30.0188 60.7534 29.9796C60.6394 29.9606 60.5477 29.9517 60.4904 29.9476C60.4619 29.9455 60.4428 29.9448 60.4344 29.9445C60.4303 29.9443 60.4289 29.9443 60.4305 29.9444C60.4313 29.9444 60.4328 29.9444 60.4351 29.9444C60.4363 29.9444 60.4376 29.9444 60.4392 29.9444C60.44 29.9444 60.4408 29.9444 60.4417 29.9444C60.4421 29.9444 60.4428 29.9444 60.443 29.9444C60.4437 29.9444 60.4444 29.9444 60.4444 28.4444ZM65.5 32C65.5 33.1514 65.2078 34.1146 64.6925 34.8876C64.1835 35.6512 63.5154 36.1416 62.893 36.4528C62.2765 36.761 61.6782 36.9077 61.2466 36.9796C61.0273 37.0161 60.8412 37.035 60.7041 37.0448C60.6353 37.0497 60.5781 37.0524 60.5343 37.0539C60.5125 37.0546 60.4939 37.055 60.4788 37.0553C60.4713 37.0554 60.4647 37.0554 60.4589 37.0555C60.4561 37.0555 60.4534 37.0555 60.451 37.0555C60.4498 37.0555 60.4486 37.0556 60.4475 37.0556C60.447 37.0556 60.4462 37.0556 60.446 37.0556C60.4452 37.0556 60.4444 37.0556 60.4444 35.5556C60.4444 34.0556 60.4437 34.0556 60.443 34.0556C60.4428 34.0556 60.4421 34.0556 60.4417 34.0556C60.4408 34.0556 60.44 34.0556 60.4392 34.0556C60.4376 34.0556 60.4363 34.0556 60.4351 34.0556C60.4328 34.0556 60.4313 34.0556 60.4305 34.0556C60.4289 34.0557 60.4303 34.0557 60.4344 34.0555C60.4428 34.0552 60.4619 34.0545 60.4904 34.0524C60.5477 34.0483 60.6394 34.0394 60.7534 34.0204C60.9885 33.9812 61.279 33.9057 61.5514 33.7695C61.8179 33.6362 62.0388 33.4599 62.1964 33.2235C62.3477 32.9965 62.5 32.6264 62.5 32H65.5ZM60.4444 37.0556H56.8889V34.0556H60.4444V37.0556ZM56.8889 35.5556C56.8889 37.0556 56.8881 37.0556 56.8874 37.0556C56.8871 37.0556 56.8863 37.0556 56.8858 37.0556C56.8847 37.0556 56.8835 37.0555 56.8823 37.0555C56.8799 37.0555 56.8773 37.0555 56.8744 37.0555C56.8687 37.0554 56.862 37.0554 56.8545 37.0553C56.8395 37.055 56.8209 37.0546 56.799 37.0539C56.7553 37.0524 56.698 37.0497 56.6292 37.0448C56.4921 37.035 56.3061 37.0161 56.0867 36.9796C55.6552 36.9077 55.0568 36.761 54.4403 36.4528C53.8179 36.1416 53.1499 35.6512 52.6408 34.8876C52.1255 34.1146 51.8333 33.1514 51.8333 32H54.8333C54.8333 32.6264 54.9856 32.9965 55.137 33.2235C55.2946 33.4599 55.5154 33.6362 55.7819 33.7695C56.0543 33.9057 56.3448 33.9812 56.5799 34.0204C56.6939 34.0394 56.7856 34.0483 56.843 34.0524C56.8714 34.0545 56.8906 34.0552 56.8989 34.0555C56.9031 34.0557 56.9045 34.0557 56.9029 34.0556C56.9021 34.0556 56.9005 34.0556 56.8982 34.0556C56.8971 34.0556 56.8957 34.0556 56.8941 34.0556C56.8934 34.0556 56.8925 34.0556 56.8917 34.0556C56.8912 34.0556 56.8905 34.0556 56.8903 34.0556C56.8896 34.0556 56.8889 34.0556 56.8889 35.5556ZM51.8333 32C51.8333 30.8486 52.1255 29.8854 52.6408 29.1124C53.1499 28.3488 53.8179 27.8584 54.4403 27.5472C55.0568 27.239 55.6552 27.0923 56.0867 27.0204C56.3061 26.9839 56.4921 26.965 56.6292 26.9552C56.698 26.9503 56.7553 26.9476 56.799 26.9461C56.8209 26.9454 56.8395 26.945 56.8545 26.9447C56.862 26.9446 56.8687 26.9446 56.8744 26.9445C56.8773 26.9445 56.8799 26.9445 56.8823 26.9445C56.8835 26.9445 56.8847 26.9444 56.8858 26.9444C56.8863 26.9444 56.8871 26.9444 56.8874 26.9444C56.8881 26.9444 56.8889 26.9444 56.8889 28.4444C56.8889 29.9444 56.8896 29.9444 56.8903 29.9444C56.8905 29.9444 56.8912 29.9444 56.8917 29.9444C56.8925 29.9444 56.8934 29.9444 56.8941 29.9444C56.8957 29.9444 56.8971 29.9444 56.8982 29.9444C56.9005 29.9444 56.9021 29.9444 56.9029 29.9444C56.9045 29.9443 56.9031 29.9443 56.8989 29.9445C56.8906 29.9448 56.8714 29.9455 56.843 29.9476C56.7856 29.9517 56.6939 29.9606 56.5799 29.9796C56.3448 30.0188 56.0543 30.0943 55.7819 30.2305C55.5154 30.3638 55.2946 30.5401 55.137 30.7765C54.9856 31.0035 54.8333 31.3736 54.8333 32H51.8333ZM56.8889 26.9444H60.4444V29.9444H56.8889V26.9444ZM7.11111 28.4444C7.11111 26.9444 7.11186 26.9444 7.11262 26.9444C7.11289 26.9444 7.11367 26.9444 7.11421 26.9444C7.11531 26.9444 7.11646 26.9445 7.11766 26.9445C7.12008 26.9445 7.12272 26.9445 7.12559 26.9445C7.13133 26.9446 7.13798 26.9446 7.1455 26.9447C7.16054 26.945 7.17913 26.9454 7.20101 26.9461C7.24475 26.9476 7.30195 26.9503 7.37076 26.9552C7.50786 26.965 7.69393 26.9839 7.91327 27.0204C8.34484 27.0923 8.94319 27.239 9.55971 27.5472C10.1821 27.8584 10.8501 28.3488 11.3592 29.1124C11.8745 29.8854 12.1667 30.8486 12.1667 32H9.16667C9.16667 31.3736 9.01437 31.0035 8.86304 30.7765C8.70544 30.5401 8.48457 30.3638 8.21807 30.2305C7.9457 30.0943 7.65516 30.0188 7.42007 29.9796C7.30608 29.9606 7.21436 29.9517 7.15702 29.9476C7.1286 29.9455 7.10942 29.9448 7.10107 29.9445C7.09692 29.9443 7.09553 29.9443 7.09712 29.9444C7.09792 29.9444 7.09946 29.9444 7.10178 29.9444C7.10294 29.9444 7.1043 29.9444 7.10585 29.9444C7.10663 29.9444 7.10746 29.9444 7.10833 29.9444C7.10877 29.9444 7.10947 29.9444 7.10968 29.9444C7.11039 29.9444 7.11111 29.9444 7.11111 28.4444ZM12.1667 32C12.1667 33.1514 11.8745 34.1146 11.3592 34.8876C10.8501 35.6512 10.1821 36.1416 9.55971 36.4528C8.94319 36.761 8.34484 36.9077 7.91327 36.9796C7.69393 37.0161 7.50786 37.035 7.37076 37.0448C7.30195 37.0497 7.24475 37.0524 7.20101 37.0539C7.17913 37.0546 7.16054 37.055 7.1455 37.0553C7.13798 37.0554 7.13133 37.0554 7.12559 37.0555C7.12272 37.0555 7.12008 37.0555 7.11766 37.0555C7.11646 37.0555 7.11531 37.0556 7.11421 37.0556C7.11367 37.0556 7.11289 37.0556 7.11262 37.0556C7.11186 37.0556 7.11111 37.0556 7.11111 35.5556C7.11111 34.0556 7.11039 34.0556 7.10968 34.0556C7.10947 34.0556 7.10877 34.0556 7.10833 34.0556C7.10746 34.0556 7.10663 34.0556 7.10585 34.0556C7.1043 34.0556 7.10294 34.0556 7.10178 34.0556C7.09946 34.0556 7.09792 34.0556 7.09712 34.0556C7.09553 34.0557 7.09692 34.0557 7.10107 34.0555C7.10942 34.0552 7.1286 34.0545 7.15702 34.0524C7.21436 34.0483 7.30608 34.0394 7.42007 34.0204C7.65516 33.9812 7.9457 33.9057 8.21807 33.7695C8.48457 33.6362 8.70544 33.4599 8.86304 33.2235C9.01437 32.9965 9.16667 32.6264 9.16667 32H12.1667ZM7.11111 37.0556H3.55556V34.0556H7.11111V37.0556ZM3.55556 35.5556C3.55556 37.0556 3.55481 37.0556 3.55405 37.0556C3.55377 37.0556 3.553 37.0556 3.55245 37.0556C3.55136 37.0556 3.55021 37.0555 3.549 37.0555C3.54659 37.0555 3.54394 37.0555 3.54107 37.0555C3.53534 37.0554 3.52869 37.0554 3.52117 37.0553C3.50612 37.055 3.48754 37.0546 3.46565 37.0539C3.42192 37.0524 3.36471 37.0497 3.29591 37.0448C3.15881 37.035 2.97274 37.0161 2.7534 36.9796C2.32183 36.9077 1.72347 36.761 1.10696 36.4528C0.484568 36.1416 -0.183451 35.6512 -0.69252 34.8876C-1.20785 34.1146 -1.5 33.1514 -1.5 32H1.5C1.5 32.6264 1.65229 32.9965 1.80363 33.2235C1.96123 33.4599 2.1821 33.6362 2.4486 33.7695C2.72097 33.9057 3.0115 33.9812 3.2466 34.0204C3.36059 34.0394 3.4523 34.0483 3.50965 34.0524C3.53807 34.0545 3.55725 34.0552 3.5656 34.0555C3.56975 34.0557 3.57113 34.0557 3.56955 34.0556C3.56875 34.0556 3.5672 34.0556 3.56488 34.0556C3.56372 34.0556 3.56237 34.0556 3.56081 34.0556C3.56004 34.0556 3.55921 34.0556 3.55833 34.0556C3.5579 34.0556 3.5572 34.0556 3.55698 34.0556C3.55628 34.0556 3.55556 34.0556 3.55556 35.5556ZM-1.5 32C-1.5 30.8486 -1.20785 29.8854 -0.69252 29.1124C-0.183451 28.3488 0.484568 27.8584 1.10696 27.5472C1.72347 27.239 2.32183 27.0923 2.7534 27.0204C2.97274 26.9839 3.15881 26.965 3.29591 26.9552C3.36471 26.9503 3.42192 26.9476 3.46565 26.9461C3.48754 26.9454 3.50612 26.945 3.52117 26.9447C3.52869 26.9446 3.53534 26.9446 3.54107 26.9445C3.54394 26.9445 3.54659 26.9445 3.549 26.9445C3.55021 26.9445 3.55136 26.9444 3.55245 26.9444C3.553 26.9444 3.55377 26.9444 3.55405 26.9444C3.55481 26.9444 3.55556 26.9444 3.55556 28.4444C3.55556 29.9444 3.55628 29.9444 3.55698 29.9444C3.5572 29.9444 3.5579 29.9444 3.55833 29.9444C3.55921 29.9444 3.56004 29.9444 3.56081 29.9444C3.56237 29.9444 3.56372 29.9444 3.56488 29.9444C3.5672 29.9444 3.56875 29.9444 3.56955 29.9444C3.57113 29.9443 3.56975 29.9443 3.5656 29.9445C3.55725 29.9448 3.53807 29.9455 3.50965 29.9476C3.4523 29.9517 3.36059 29.9606 3.2466 29.9796C3.0115 30.0188 2.72097 30.0943 2.4486 30.2305C2.1821 30.3638 1.96123 30.5401 1.80363 30.7765C1.65229 31.0035 1.5 31.3736 1.5 32H-1.5ZM3.55556 26.9444H7.11111V29.9444H3.55556V26.9444ZM16.2151 12.9671C17.2758 11.9065 17.2763 11.907 17.2768 11.9075C17.277 11.9077 17.2776 11.9083 17.278 11.9086C17.2787 11.9094 17.2795 11.9102 17.2804 11.9111C17.2821 11.9128 17.284 11.9147 17.286 11.9167C17.29 11.9208 17.2946 11.9256 17.2999 11.931C17.3103 11.9418 17.3232 11.9552 17.3381 11.9712C17.368 12.0032 17.4066 12.0455 17.4517 12.0976C17.5418 12.2015 17.66 12.3464 17.7892 12.5273C18.0435 12.8833 18.3629 13.41 18.5808 14.0639C18.8008 14.724 18.9264 15.543 18.7465 16.4428C18.5643 17.3537 18.0898 18.2413 17.2758 19.0553L15.1545 16.934C15.5973 16.4912 15.7513 16.1219 15.8047 15.8544C15.8604 15.5759 15.829 15.2952 15.7348 15.0126C15.6385 14.7237 15.4865 14.4649 15.348 14.271C15.2809 14.177 15.2223 14.1059 15.1847 14.0624C15.166 14.0409 15.153 14.0268 15.1473 14.0207C15.1445 14.0177 15.1435 14.0167 15.1446 14.0178C15.1452 14.0184 15.1463 14.0195 15.1479 14.0212C15.1487 14.022 15.1496 14.0229 15.1507 14.024C15.1513 14.0246 15.1519 14.0252 15.1525 14.0258C15.1528 14.0261 15.1533 14.0266 15.1534 14.0268C15.1539 14.0273 15.1545 14.0278 16.2151 12.9671ZM17.2758 19.0553C16.4617 19.8694 15.5741 20.3439 14.6632 20.526C13.7634 20.706 12.9444 20.5804 12.2843 20.3604C11.6305 20.1424 11.1037 19.823 10.7478 19.5688C10.5668 19.4395 10.4219 19.3213 10.3181 19.2313C10.266 19.1861 10.2236 19.1476 10.1917 19.1177C10.1757 19.1027 10.1622 19.0899 10.1514 19.0794C10.146 19.0742 10.1413 19.0695 10.1372 19.0655C10.1351 19.0635 10.1333 19.0617 10.1315 19.06C10.1307 19.0591 10.1299 19.0583 10.1291 19.0575C10.1287 19.0571 10.1282 19.0566 10.128 19.0564C10.1274 19.0559 10.1269 19.0553 11.1876 17.9947C12.2482 16.934 12.2477 16.9335 12.2472 16.933C12.2471 16.9328 12.2466 16.9324 12.2462 16.932C12.2456 16.9314 12.245 16.9308 12.2445 16.9303C12.2434 16.9292 12.2424 16.9282 12.2416 16.9274C12.2399 16.9258 12.2388 16.9247 12.2383 16.9242C12.2371 16.9231 12.2381 16.924 12.2411 16.9269C12.2472 16.9326 12.2614 16.9456 12.2829 16.9642C12.3263 17.0019 12.3975 17.0604 12.4915 17.1276C12.6854 17.2661 12.9442 17.418 13.233 17.5143C13.5156 17.6085 13.7964 17.64 14.0749 17.5843C14.3423 17.5308 14.7116 17.3769 15.1545 16.934L17.2758 19.0553ZM10.1273 19.0557L7.61171 16.5419L9.73228 14.4199L12.2478 16.9336L10.1273 19.0557ZM8.672 15.4809C7.61134 16.5415 7.61081 16.541 7.61027 16.5405C7.61008 16.5403 7.60953 16.5397 7.60915 16.5394C7.60838 16.5386 7.60756 16.5378 7.60671 16.5369C7.60501 16.5352 7.60315 16.5333 7.60114 16.5313C7.59711 16.5272 7.59247 16.5224 7.58723 16.517C7.57677 16.5062 7.56393 16.4928 7.54896 16.4768C7.51907 16.4448 7.48051 16.4025 7.43534 16.3503C7.34532 16.2465 7.2271 16.1016 7.09786 15.9206C6.84357 15.5646 6.52421 15.0378 6.30627 14.3838C6.08626 13.7236 5.96069 12.9045 6.1406 12.0046C6.32272 11.0936 6.79706 10.2058 7.61096 9.39127L9.73303 11.5118C9.29005 11.9551 9.13594 12.3248 9.08239 12.5927C9.02664 12.8716 9.05818 13.1526 9.15239 13.4353C9.24868 13.7242 9.40066 13.9831 9.53914 14.177C9.60629 14.271 9.66482 14.3422 9.70245 14.3856C9.7211 14.4071 9.7341 14.4212 9.7398 14.4273C9.74264 14.4304 9.74361 14.4313 9.7425 14.4302C9.74194 14.4296 9.74086 14.4285 9.73923 14.4269C9.73842 14.426 9.73747 14.4251 9.73637 14.424C9.73583 14.4234 9.73524 14.4228 9.73462 14.4222C9.73431 14.4219 9.73382 14.4214 9.73367 14.4212C9.73317 14.4207 9.73266 14.4202 8.672 15.4809ZM7.61171 9.39052C8.4262 8.57661 9.31405 8.10228 10.225 7.92016C11.125 7.74025 11.9441 7.86582 12.6042 8.08583C13.2582 8.30376 13.785 8.62312 14.141 8.87741C14.322 9.00665 14.4669 9.12488 14.5708 9.21489C14.6229 9.26007 14.6653 9.29863 14.6972 9.32852C14.7132 9.34348 14.7266 9.35632 14.7375 9.36679C14.7429 9.37202 14.7476 9.37667 14.7517 9.38069C14.7538 9.38271 14.7556 9.38457 14.7573 9.38627C14.7582 9.38712 14.759 9.38793 14.7598 9.3887C14.7602 9.38909 14.7607 9.38964 14.7609 9.38983C14.7615 9.39037 14.762 9.39089 13.7013 10.4516C12.6407 11.5122 12.6412 11.5127 12.6417 11.5132C12.6418 11.5134 12.6423 11.5139 12.6426 11.5142C12.6433 11.5148 12.6438 11.5154 12.6444 11.5159C12.6455 11.517 12.6465 11.518 12.6473 11.5188C12.649 11.5204 12.6501 11.5215 12.6506 11.5221C12.6518 11.5232 12.6508 11.5222 12.6478 11.5194C12.6417 11.5137 12.6276 11.5007 12.606 11.482C12.5626 11.4444 12.4915 11.3858 12.3975 11.3187C12.2036 11.1802 11.9447 11.0282 11.6558 10.9319C11.3731 10.8377 11.092 10.8062 10.8131 10.8619C10.5453 10.9155 10.1756 11.0696 9.73228 11.5126L7.61171 9.39052ZM14.7624 9.39127L17.2761 11.9068L15.1541 14.0274L12.6403 11.5118L14.7624 9.39127ZM53.5484 50.2987C54.6091 49.238 54.6096 49.2385 54.6102 49.2391C54.6104 49.2393 54.6109 49.2398 54.6113 49.2402C54.6121 49.241 54.6129 49.2418 54.6137 49.2426C54.6154 49.2444 54.6173 49.2462 54.6193 49.2483C54.6233 49.2524 54.628 49.2571 54.6332 49.2625C54.6437 49.2733 54.6565 49.2868 54.6715 49.3028C54.7014 49.3347 54.7399 49.3771 54.7851 49.4292C54.8751 49.5331 54.9933 49.6779 55.1225 49.8589C55.3768 50.2149 55.6962 50.7416 55.9141 51.3954C56.1342 52.0555 56.2598 52.8745 56.0798 53.7743C55.8976 54.6852 55.4231 55.5728 54.6091 56.3869L52.4878 54.2656C52.9306 53.8227 53.0846 53.4534 53.1381 53.186C53.1938 52.9075 53.1623 52.6267 53.0681 52.3441C52.9718 52.0553 52.8198 51.7965 52.6813 51.6026C52.6142 51.5086 52.5557 51.4374 52.518 51.394C52.4994 51.3725 52.4864 51.3583 52.4807 51.3522C52.4778 51.3492 52.4768 51.3482 52.478 51.3494C52.4785 51.3499 52.4796 51.3511 52.4812 51.3527C52.482 51.3535 52.483 51.3545 52.4841 51.3556C52.4846 51.3562 52.4852 51.3567 52.4858 51.3574C52.4861 51.3577 52.4866 51.3582 52.4868 51.3583C52.4873 51.3588 52.4878 51.3593 53.5484 50.2987ZM54.6091 56.3869C53.7951 57.2009 52.9075 57.6754 51.9966 57.8576C51.0967 58.0376 50.2777 57.9119 49.6177 57.6919C48.9638 57.474 48.4371 57.1546 48.0811 56.9003C47.9002 56.7711 47.7553 56.6529 47.6514 56.5629C47.5993 56.5177 47.5569 56.4791 47.525 56.4492C47.509 56.4343 47.4956 56.4214 47.4848 56.411C47.4794 56.4058 47.4746 56.4011 47.4705 56.3971C47.4685 56.3951 47.4666 56.3932 47.4649 56.3915C47.464 56.3907 47.4632 56.3898 47.4624 56.3891C47.462 56.3887 47.4615 56.3881 47.4613 56.3879C47.4608 56.3874 47.4602 56.3869 48.5209 55.3262C49.5815 54.2656 49.581 54.2651 49.5805 54.2646C49.5804 54.2644 49.5799 54.2639 49.5796 54.2636C49.579 54.263 49.5784 54.2624 49.5778 54.2619C49.5767 54.2608 49.5758 54.2598 49.5749 54.259C49.5733 54.2574 49.5722 54.2563 49.5716 54.2557C49.5705 54.2546 49.5714 54.2556 49.5745 54.2584C49.5806 54.2641 49.5947 54.2771 49.6162 54.2958C49.6596 54.3334 49.7308 54.392 49.8248 54.4591C50.0187 54.5976 50.2775 54.7496 50.5663 54.8459C50.8489 54.9401 51.1297 54.9716 51.4082 54.9159C51.6757 54.8624 52.0449 54.7084 52.4878 54.2656L54.6091 56.3869ZM47.4602 56.3869L44.9465 53.8731L47.0678 51.7518L49.5815 54.2656L47.4602 56.3869ZM46.0071 52.8124C44.9465 53.8731 44.9459 53.8726 44.9454 53.872C44.9452 53.8718 44.9446 53.8713 44.9443 53.8709C44.9435 53.8701 44.9427 53.8693 44.9418 53.8685C44.9401 53.8667 44.9383 53.8649 44.9363 53.8628C44.9322 53.8587 44.9276 53.854 44.9223 53.8486C44.9119 53.8378 44.899 53.8243 44.8841 53.8083C44.8542 53.7764 44.8156 53.734 44.7705 53.6819C44.6805 53.5781 44.5622 53.4332 44.433 53.2522C44.1787 52.8963 43.8594 52.3695 43.6414 51.7157C43.4214 51.0556 43.2958 50.2366 43.4757 49.3368C43.6579 48.4259 44.1324 47.5383 44.9465 46.7242L47.0678 48.8455C46.6249 49.2884 46.471 49.6577 46.4175 49.9251C46.3618 50.2036 46.3933 50.4844 46.4875 50.767C46.5837 51.0558 46.7357 51.3146 46.8742 51.5085C46.9414 51.6025 46.9999 51.6737 47.0375 51.7171C47.0562 51.7386 47.0692 51.7528 47.0749 51.7589C47.0777 51.7619 47.0787 51.7629 47.0776 51.7617C47.077 51.7612 47.076 51.7601 47.0743 51.7584C47.0735 51.7576 47.0726 51.7566 47.0715 51.7555C47.0709 51.755 47.0704 51.7544 47.0697 51.7538C47.0694 51.7534 47.0689 51.7529 47.0688 51.7528C47.0683 51.7523 47.0678 51.7518 46.0071 52.8124ZM44.9465 46.7242C45.7605 45.9102 46.6481 45.4357 47.559 45.2535C48.4588 45.0736 49.2778 45.1992 49.9379 45.4192C50.5917 45.6371 51.1185 45.9565 51.4745 46.2108C51.6554 46.34 51.8003 46.4582 51.9041 46.5483C51.9563 46.5934 51.9986 46.632 52.0306 46.6619C52.0466 46.6768 52.06 46.6897 52.0708 46.7001C52.0762 46.7054 52.081 46.71 52.085 46.714C52.0871 46.716 52.089 46.7179 52.0907 46.7196C52.0915 46.7205 52.0924 46.7213 52.0931 46.722C52.0935 46.7224 52.0941 46.723 52.0943 46.7232C52.0948 46.7237 52.0953 46.7242 51.0347 47.7849C49.974 48.8455 49.9745 48.8461 49.975 48.8466C49.9752 48.8467 49.9757 48.8472 49.976 48.8475C49.9766 48.8481 49.9772 48.8487 49.9777 48.8493C49.9788 48.8504 49.9798 48.8513 49.9806 48.8521C49.9823 48.8537 49.9834 48.8548 49.984 48.8554C49.9851 48.8565 49.9841 48.8555 49.9811 48.8527C49.975 48.847 49.9609 48.834 49.9393 48.8153C49.8959 48.7777 49.8248 48.7191 49.7308 48.652C49.5369 48.5135 49.278 48.3615 48.9892 48.2652C48.7066 48.171 48.4258 48.1396 48.1473 48.1953C47.8799 48.2487 47.5106 48.4027 47.0678 48.8455L44.9465 46.7242ZM52.0953 46.7242L54.6091 49.238L52.4878 51.3593L49.974 48.8455L52.0953 46.7242ZM52.8142 17.9929C53.8749 19.0535 53.8744 19.0541 53.8738 19.0546C53.8736 19.0548 53.8731 19.0554 53.8727 19.0557C53.8719 19.0565 53.8711 19.0573 53.8702 19.0582C53.8685 19.0599 53.8666 19.0617 53.8646 19.0637C53.8605 19.0678 53.8558 19.0724 53.8504 19.0777C53.8395 19.0881 53.8261 19.101 53.8101 19.1159C53.7782 19.1458 53.7358 19.1844 53.6837 19.2295C53.5798 19.3195 53.4349 19.4378 53.254 19.567C52.898 19.8213 52.3713 20.1406 51.7175 20.3586C51.0574 20.5786 50.2384 20.7042 49.3385 20.5243C48.4277 20.3421 47.54 19.8676 46.726 19.0535L48.8473 16.9322C49.2902 17.3751 49.6595 17.529 49.9269 17.5825C50.2054 17.6382 50.4862 17.6067 50.7688 17.5125C51.0576 17.4163 51.3164 17.2643 51.5103 17.1258C51.6043 17.0586 51.6755 17.0001 51.7189 16.9625C51.7404 16.9438 51.7545 16.9308 51.7606 16.9251C51.7637 16.9223 51.7647 16.9213 51.7635 16.9224C51.7629 16.923 51.7618 16.924 51.7602 16.9257C51.7594 16.9265 51.7584 16.9274 51.7573 16.9285C51.7567 16.9291 51.7562 16.9296 51.7555 16.9303C51.7552 16.9306 51.7547 16.9311 51.7546 16.9312C51.7541 16.9317 51.7536 16.9322 52.8142 17.9929ZM46.726 19.0535C45.912 18.2395 45.4375 17.3519 45.2553 16.441C45.0753 15.5412 45.2009 14.7222 45.421 14.0621C45.6389 13.4083 45.9583 12.8815 46.2126 12.5255C46.3418 12.3446 46.46 12.1997 46.55 12.0959C46.5952 12.0437 46.6338 12.0014 46.6636 11.9694C46.6786 11.9534 46.6914 11.94 46.7019 11.9292C46.7071 11.9238 46.7118 11.919 46.7158 11.915C46.7178 11.9129 46.7197 11.911 46.7214 11.9093C46.7222 11.9085 46.723 11.9076 46.7238 11.9069C46.7242 11.9065 46.7247 11.9059 46.7249 11.9057C46.7255 11.9052 46.726 11.9047 47.7867 12.9653C48.8473 14.026 48.8478 14.0255 48.8483 14.025C48.8485 14.0248 48.849 14.0243 48.8493 14.024C48.8499 14.0234 48.8505 14.0228 48.851 14.0223C48.8521 14.0212 48.8531 14.0202 48.8539 14.0194C48.8555 14.0177 48.8566 14.0166 48.8572 14.016C48.8583 14.0149 48.8573 14.0159 48.8545 14.0189C48.8487 14.025 48.8357 14.0391 48.8171 14.0607C48.7795 14.1041 48.7209 14.1752 48.6538 14.2692C48.5153 14.4631 48.3633 14.722 48.267 15.0108C48.1728 15.2934 48.1413 15.5742 48.197 15.8527C48.2505 16.1201 48.4045 16.4894 48.8473 16.9322L46.726 19.0535ZM46.726 11.9047L49.2398 9.39089L51.3611 11.5122L48.8473 14.026L46.726 11.9047ZM50.3004 10.4516C49.2398 9.39089 49.2403 9.39037 49.2409 9.38983C49.241 9.38964 49.2416 9.38909 49.242 9.3887C49.2428 9.38793 49.2436 9.38712 49.2444 9.38627C49.2461 9.38457 49.248 9.38271 49.2501 9.3807C49.2542 9.37667 49.2589 9.37203 49.2643 9.36679C49.2751 9.35633 49.2886 9.34349 49.3046 9.32853C49.3365 9.29864 49.3789 9.26009 49.431 9.21492C49.5348 9.12491 49.6797 9.00669 49.8606 8.87745C50.2166 8.62318 50.7434 8.30381 51.3972 8.08586C52.0573 7.86584 52.8763 7.74022 53.7761 7.92018C54.687 8.10236 55.5746 8.57685 56.3887 9.39089L54.2673 11.5122C53.8245 11.0694 53.4552 10.9154 53.1878 10.8619C52.9093 10.8062 52.6285 10.8377 52.3459 10.9319C52.0571 11.0282 51.7983 11.1802 51.6044 11.3187C51.5103 11.3858 51.4392 11.4443 51.3958 11.482C51.3742 11.5006 51.3601 11.5136 51.354 11.5193C51.351 11.5222 51.35 11.5232 51.3512 11.522C51.3517 11.5215 51.3528 11.5204 51.3545 11.5188C51.3553 11.518 51.3563 11.517 51.3574 11.5159C51.3579 11.5154 51.3585 11.5148 51.3591 11.5142C51.3594 11.5139 51.3599 11.5134 51.3601 11.5132C51.3606 11.5127 51.3611 11.5122 50.3004 10.4516ZM56.3887 9.39089C57.2027 10.2049 57.6772 11.0925 57.8594 12.0034C58.0393 12.9033 57.9137 13.7223 57.6937 14.3823C57.4757 15.0362 57.1564 15.5629 56.9021 15.9189C56.7729 16.0998 56.6547 16.2447 56.5646 16.3486C56.5195 16.4007 56.4809 16.4431 56.451 16.475C56.4361 16.491 56.4232 16.5044 56.4128 16.5152C56.4075 16.5206 56.4029 16.5254 56.3989 16.5295C56.3968 16.5315 56.395 16.5334 56.3933 16.5351C56.3924 16.536 56.3916 16.5368 56.3909 16.5376C56.3905 16.538 56.3899 16.5385 56.3897 16.5387C56.3892 16.5392 56.3887 16.5398 55.328 15.4791C54.2673 14.4185 54.2668 14.419 54.2663 14.4195C54.2662 14.4196 54.2657 14.4201 54.2654 14.4204C54.2648 14.421 54.2642 14.4216 54.2636 14.4222C54.2625 14.4233 54.2616 14.4242 54.2608 14.4251C54.2591 14.4267 54.2581 14.4278 54.2575 14.4284C54.2564 14.4295 54.2574 14.4286 54.2602 14.4255C54.2659 14.4194 54.2789 14.4053 54.2976 14.3838C54.3352 14.3404 54.3937 14.2692 54.4609 14.1752C54.5994 13.9813 54.7514 13.7225 54.8476 13.4337C54.9418 13.1511 54.9733 12.8703 54.9176 12.5918C54.8641 12.3243 54.7102 11.9551 54.2673 11.5122L56.3887 9.39089ZM56.3887 16.5398L53.8749 19.0535L51.7536 16.9322L54.2673 14.4185L56.3887 16.5398ZM15.4809 55.3262C16.5415 56.3869 16.541 56.3874 16.5405 56.3879C16.5403 56.3881 16.5397 56.3887 16.5394 56.3891C16.5386 56.3898 16.5378 56.3907 16.5369 56.3915C16.5352 56.3932 16.5333 56.3951 16.5313 56.3971C16.5272 56.4011 16.5224 56.4057 16.517 56.411C16.5062 56.4214 16.4928 56.4343 16.4768 56.4492C16.4448 56.4791 16.4025 56.5177 16.3504 56.5629C16.2465 56.6529 16.1016 56.7711 15.9207 56.9003C15.5647 57.1546 15.038 57.474 14.3841 57.6919C13.724 57.9119 12.905 58.0376 12.0052 57.8576C11.0943 57.6754 10.2067 57.2009 9.39267 56.3869L11.514 54.2656C11.9568 54.7084 12.3261 54.8624 12.5936 54.9159C12.8721 54.9716 13.1528 54.9401 13.4354 54.8459C13.7243 54.7496 13.9831 54.5976 14.177 54.4591C14.271 54.392 14.3421 54.3334 14.3856 54.2958C14.4071 54.2771 14.4212 54.2641 14.4273 54.2584C14.4303 54.2556 14.4313 54.2546 14.4302 54.2557C14.4296 54.2563 14.4285 54.2574 14.4268 54.259C14.426 54.2598 14.4251 54.2608 14.424 54.2619C14.4234 54.2624 14.4228 54.263 14.4222 54.2636C14.4219 54.2639 14.4214 54.2644 14.4212 54.2646C14.4207 54.2651 14.4202 54.2656 15.4809 55.3262ZM9.39267 56.3869C8.57863 55.5728 8.10414 54.6852 7.92196 53.7743C7.742 52.8745 7.86762 52.0555 8.08764 51.3954C8.30559 50.7416 8.62496 50.2149 8.87923 49.8589C9.00847 49.6779 9.12669 49.5331 9.2167 49.4292C9.26187 49.3771 9.30042 49.3347 9.33031 49.3028C9.34527 49.2868 9.35811 49.2733 9.36857 49.2625C9.37381 49.2571 9.37845 49.2524 9.38248 49.2483C9.38449 49.2462 9.38635 49.2444 9.38805 49.2426C9.3889 49.2418 9.38971 49.241 9.39048 49.2402C9.39087 49.2398 9.39142 49.2393 9.39161 49.2391C9.39215 49.2385 9.39267 49.238 10.4533 50.2987C11.514 51.3593 11.5145 51.3588 11.515 51.3583C11.5152 51.3582 11.5156 51.3577 11.516 51.3574C11.5166 51.3567 11.5172 51.3562 11.5177 51.3556C11.5188 51.3545 11.5198 51.3535 11.5206 51.3527C11.5222 51.3511 11.5233 51.3499 11.5238 51.3494C11.5249 51.3482 11.524 51.3492 11.5211 51.3522C11.5154 51.3583 11.5024 51.3725 11.4838 51.394C11.4461 51.4374 11.3876 51.5086 11.3204 51.6026C11.1819 51.7965 11.03 52.0553 10.9337 52.3441C10.8395 52.6267 10.808 52.9075 10.8637 53.186C10.9172 53.4534 11.0711 53.8227 11.514 54.2656L9.39267 56.3869ZM9.39267 49.238L11.9065 46.7242L14.0278 48.8455L11.514 51.3593L9.39267 49.238ZM12.9671 47.7849C11.9065 46.7242 11.907 46.7237 11.9075 46.7232C11.9077 46.723 11.9083 46.7224 11.9086 46.722C11.9094 46.7213 11.9102 46.7205 11.9111 46.7196C11.9128 46.7179 11.9147 46.716 11.9167 46.714C11.9208 46.71 11.9256 46.7054 11.931 46.7001C11.9418 46.6897 11.9552 46.6768 11.9712 46.6619C12.0032 46.632 12.0455 46.5934 12.0976 46.5483C12.2015 46.4582 12.3464 46.34 12.5273 46.2108C12.8833 45.9565 13.41 45.6371 14.0639 45.4192C14.724 45.1992 15.543 45.0736 16.4428 45.2535C17.3537 45.4357 18.2413 45.9102 19.0553 46.7242L16.934 48.8455C16.4912 48.4027 16.1219 48.2487 15.8544 48.1953C15.5759 48.1396 15.2952 48.171 15.0126 48.2652C14.7237 48.3615 14.4649 48.5135 14.271 48.652C14.177 48.7191 14.1059 48.7777 14.0624 48.8153C14.0409 48.834 14.0268 48.847 14.0207 48.8527C14.0177 48.8555 14.0167 48.8565 14.0178 48.8554C14.0184 48.8548 14.0195 48.8537 14.0212 48.8521C14.022 48.8513 14.0229 48.8504 14.024 48.8493C14.0246 48.8487 14.0252 48.8481 14.0258 48.8475C14.0261 48.8472 14.0266 48.8467 14.0268 48.8466C14.0273 48.8461 14.0278 48.8455 12.9671 47.7849ZM19.0553 46.7242C19.8694 47.5383 20.3439 48.4259 20.526 49.3368C20.706 50.2366 20.5804 51.0556 20.3604 51.7157C20.1424 52.3695 19.823 52.8963 19.5688 53.2522C19.4395 53.4332 19.3213 53.5781 19.2313 53.6819C19.1861 53.734 19.1476 53.7764 19.1177 53.8083C19.1027 53.8243 19.0899 53.8378 19.0794 53.8486C19.0742 53.854 19.0695 53.8587 19.0655 53.8628C19.0635 53.8649 19.0617 53.8667 19.06 53.8685C19.0591 53.8693 19.0583 53.8701 19.0575 53.8709C19.0571 53.8713 19.0566 53.8718 19.0564 53.872C19.0559 53.8726 19.0553 53.8731 17.9947 52.8124C16.934 51.7518 16.9335 51.7523 16.933 51.7528C16.9328 51.7529 16.9324 51.7534 16.932 51.7538C16.9314 51.7544 16.9308 51.755 16.9303 51.7555C16.9292 51.7566 16.9282 51.7576 16.9274 51.7584C16.9258 51.7601 16.9247 51.7612 16.9242 51.7617C16.9231 51.7629 16.924 51.7619 16.9269 51.7589C16.9326 51.7528 16.9456 51.7386 16.9642 51.7171C17.0019 51.6737 17.0604 51.6025 17.1276 51.5085C17.2661 51.3146 17.418 51.0558 17.5143 50.767C17.6085 50.4844 17.64 50.2036 17.5843 49.9251C17.5308 49.6577 17.3769 49.2884 16.934 48.8455L19.0553 46.7242ZM19.0553 53.8731L16.5415 56.3869L14.4202 54.2656L16.934 51.7518L19.0553 53.8731ZM28.4444 56.8889C26.9444 56.8889 26.9444 56.8881 26.9444 56.8874C26.9444 56.8871 26.9444 56.8863 26.9444 56.8858C26.9444 56.8847 26.9445 56.8835 26.9445 56.8823C26.9445 56.8799 26.9445 56.8773 26.9445 56.8744C26.9446 56.8687 26.9446 56.862 26.9447 56.8545C26.945 56.8395 26.9454 56.8209 26.9461 56.799C26.9476 56.7553 26.9503 56.698 26.9552 56.6292C26.965 56.4921 26.9839 56.3061 27.0204 56.0867C27.0923 55.6552 27.239 55.0568 27.5472 54.4403C27.8584 53.8179 28.3488 53.1499 29.1124 52.6408C29.8854 52.1255 30.8486 51.8333 32 51.8333V54.8333C31.3736 54.8333 31.0035 54.9856 30.7765 55.137C30.5401 55.2946 30.3638 55.5154 30.2305 55.7819C30.0943 56.0543 30.0188 56.3448 29.9796 56.5799C29.9606 56.6939 29.9517 56.7856 29.9476 56.843C29.9455 56.8714 29.9448 56.8906 29.9445 56.8989C29.9443 56.9031 29.9443 56.9045 29.9444 56.9029C29.9444 56.9021 29.9444 56.9005 29.9444 56.8982C29.9444 56.8971 29.9444 56.8957 29.9444 56.8941C29.9444 56.8934 29.9444 56.8925 29.9444 56.8917C29.9444 56.8912 29.9444 56.8905 29.9444 56.8903C29.9444 56.8896 29.9444 56.8889 28.4444 56.8889ZM32 51.8333C33.1514 51.8333 34.1146 52.1255 34.8876 52.6408C35.6512 53.1499 36.1416 53.8179 36.4528 54.4403C36.761 55.0568 36.9077 55.6552 36.9796 56.0867C37.0161 56.3061 37.035 56.4921 37.0448 56.6292C37.0497 56.698 37.0524 56.7553 37.0539 56.799C37.0546 56.8209 37.055 56.8395 37.0553 56.8545C37.0554 56.862 37.0554 56.8687 37.0555 56.8744C37.0555 56.8773 37.0555 56.8799 37.0555 56.8823C37.0555 56.8835 37.0556 56.8847 37.0556 56.8858C37.0556 56.8863 37.0556 56.8871 37.0556 56.8874C37.0556 56.8881 37.0556 56.8889 35.5556 56.8889C34.0556 56.8889 34.0556 56.8896 34.0556 56.8903C34.0556 56.8905 34.0556 56.8912 34.0556 56.8917C34.0556 56.8925 34.0556 56.8934 34.0556 56.8941C34.0556 56.8957 34.0556 56.8971 34.0556 56.8982C34.0556 56.9005 34.0556 56.9021 34.0556 56.9029C34.0557 56.9045 34.0557 56.9031 34.0555 56.8989C34.0552 56.8906 34.0545 56.8714 34.0524 56.843C34.0483 56.7856 34.0394 56.6939 34.0204 56.5799C33.9812 56.3448 33.9057 56.0543 33.7695 55.7819C33.6362 55.5154 33.4599 55.2946 33.2235 55.137C32.9965 54.9856 32.6264 54.8333 32 54.8333V51.8333ZM37.0556 56.8889V60.4444H34.0556V56.8889H37.0556ZM35.5556 60.4444C37.0556 60.4444 37.0556 60.4452 37.0556 60.446C37.0556 60.4462 37.0556 60.447 37.0556 60.4475C37.0556 60.4486 37.0555 60.4498 37.0555 60.451C37.0555 60.4534 37.0555 60.4561 37.0555 60.4589C37.0554 60.4647 37.0554 60.4713 37.0553 60.4788C37.055 60.4939 37.0546 60.5125 37.0539 60.5343C37.0524 60.5781 37.0497 60.6353 37.0448 60.7041C37.035 60.8412 37.0161 61.0273 36.9796 61.2466C36.9077 61.6782 36.761 62.2765 36.4528 62.893C36.1416 63.5154 35.6512 64.1835 34.8876 64.6925C34.1146 65.2078 33.1514 65.5 32 65.5V62.5C32.6264 62.5 32.9965 62.3477 33.2235 62.1964C33.4599 62.0388 33.6362 61.8179 33.7695 61.5514C33.9057 61.279 33.9812 60.9885 34.0204 60.7534C34.0394 60.6394 34.0483 60.5477 34.0524 60.4904C34.0545 60.4619 34.0552 60.4428 34.0555 60.4344C34.0557 60.4302 34.0557 60.4289 34.0556 60.4305C34.0556 60.4312 34.0556 60.4328 34.0556 60.4351C34.0556 60.4363 34.0556 60.4376 34.0556 60.4392C34.0556 60.44 34.0556 60.4408 34.0556 60.4417C34.0556 60.4421 34.0556 60.4428 34.0556 60.443C34.0556 60.4437 34.0556 60.4444 35.5556 60.4444ZM32 65.5C30.8486 65.5 29.8854 65.2078 29.1124 64.6925C28.3488 64.1835 27.8584 63.5154 27.5472 62.893C27.239 62.2765 27.0923 61.6782 27.0204 61.2466C26.9839 61.0273 26.965 60.8412 26.9552 60.7041C26.9503 60.6353 26.9476 60.5781 26.9461 60.5343C26.9454 60.5125 26.945 60.4939 26.9447 60.4788C26.9446 60.4713 26.9446 60.4647 26.9445 60.4589C26.9445 60.4561 26.9445 60.4534 26.9445 60.451C26.9445 60.4498 26.9444 60.4486 26.9444 60.4475C26.9444 60.447 26.9444 60.4462 26.9444 60.446C26.9444 60.4452 26.9444 60.4444 28.4444 60.4444C29.9444 60.4444 29.9444 60.4437 29.9444 60.443C29.9444 60.4428 29.9444 60.4421 29.9444 60.4417C29.9444 60.4408 29.9444 60.44 29.9444 60.4392C29.9444 60.4376 29.9444 60.4363 29.9444 60.4351C29.9444 60.4328 29.9444 60.4312 29.9444 60.4305C29.9443 60.4289 29.9443 60.4302 29.9445 60.4344C29.9448 60.4428 29.9455 60.4619 29.9476 60.4904C29.9517 60.5477 29.9606 60.6394 29.9796 60.7534C30.0188 60.9885 30.0943 61.279 30.2305 61.5514C30.3638 61.8179 30.5401 62.0388 30.7765 62.1964C31.0035 62.3477 31.3736 62.5 32 62.5V65.5ZM26.9444 60.4444V56.8889H29.9444V60.4444H26.9444ZM48.2778 32C48.2778 23.0099 40.9886 15.7222 32 15.7222V12.7222C42.6452 12.7222 51.2778 21.3528 51.2778 32H48.2778ZM32 15.7222C23.0098 15.7222 15.7222 23.0098 15.7222 32H12.7222C12.7222 21.3529 21.3529 12.7222 32 12.7222V15.7222ZM15.7222 32C15.7222 40.9886 23.0099 48.2778 32 48.2778V51.2778C21.3528 51.2778 12.7222 42.6452 12.7222 32H15.7222ZM32 48.2778C40.9885 48.2778 48.2778 40.9885 48.2778 32H51.2778C51.2778 42.6453 42.6453 51.2778 32 51.2778V48.2778Z" fill="black" mask="url(#path-1-inside-1_25_165)"/>
</svg>
